<?xml version="1.0" encoding="UTF-8" ?>
<svg version="1.1" width="76" height="76" xmlns="http://www.w3.org/2000/svg" shape-rendering="crispEdges">
<rect x="16" y="0" width="2" height="2" fill="#181425" />
<rect x="18" y="0" width="2" height="2" fill="#181425" />
<rect x="20" y="0" width="2" height="2" fill="#181425" />
<rect x="22" y="0" width="2" height="2" fill="#181425" />
<rect x="24" y="0" width="2" height="2" fill="#181425" />
<rect x="14" y="2" width="2" height="2" fill="#181425" />
<rect x="16" y="2" width="2" height="2" fill="#181425" />
<rect x="18" y="2" width="2" height="2" fill="#181425" />
<rect x="20" y="2" width="2" height="2" fill="#181425" />
<rect x="22" y="2" width="2" height="2" fill="#181425" />
<rect x="24" y="2" width="2" height="2" fill="#181425" />
<rect x="26" y="2" width="2" height="2" fill="#181425" />
<rect x="28" y="2" width="2" height="2" fill="#181425" />
<rect x="12" y="4" width="2" height="2" fill="#181425" />
<rect x="14" y="4" width="2" height="2" fill="#181425" />
<rect x="16" y="4" width="2" height="2" fill="#181425" />
<rect x="18" y="4" width="2" height="2" fill="#181425" />
<rect x="20" y="4" width="2" height="2" fill="#181425" />
<rect x="22" y="4" width="2" height="2" fill="#181425" />
<rect x="24" y="4" width="2" height="2" fill="#181425" />
<rect x="26" y="4" width="2" height="2" fill="#181425" />
<rect x="28" y="4" width="2" height="2" fill="#181425" />
<rect x="30" y="4" width="2" height="2" fill="#181425" />
<rect x="32" y="4" width="2" height="2" fill="#181425" />
<rect x="34" y="4" width="2" height="2" fill="#181425" />
<rect x="12" y="6" width="2" height="2" fill="#181425" />
<rect x="14" y="6" width="2" height="2" fill="#181425" />
<rect x="16" y="6" width="2" height="2" fill="#181425" />
<rect x="18" y="6" width="2" height="2" fill="#181425" />
<rect x="20" y="6" width="2" height="2" fill="#181425" />
<rect x="22" y="6" width="2" height="2" fill="#181425" />
<rect x="24" y="6" width="2" height="2" fill="#181425" />
<rect x="26" y="6" width="2" height="2" fill="#181425" />
<rect x="28" y="6" width="2" height="2" fill="#181425" />
<rect x="30" y="6" width="2" height="2" fill="#181425" />
<rect x="32" y="6" width="2" height="2" fill="#181425" />
<rect x="34" y="6" width="2" height="2" fill="#181425" />
<rect x="36" y="6" width="2" height="2" fill="#181425" />
<rect x="38" y="6" width="2" height="2" fill="#181425" />
<rect x="12" y="8" width="2" height="2" fill="#181425" />
<rect x="14" y="8" width="2" height="2" fill="#181425" />
<rect x="16" y="8" width="2" height="2" fill="#181425" />
<rect x="18" y="8" width="2" height="2" fill="#181425" />
<rect x="20" y="8" width="2" height="2" fill="#181425" />
<rect x="22" y="8" width="2" height="2" fill="#181425" />
<rect x="24" y="8" width="2" height="2" fill="#181425" />
<rect x="26" y="8" width="2" height="2" fill="#181425" />
<rect x="28" y="8" width="2" height="2" fill="#181425" />
<rect x="30" y="8" width="2" height="2" fill="#181425" />
<rect x="32" y="8" width="2" height="2" fill="#181425" />
<rect x="34" y="8" width="2" height="2" fill="#181425" />
<rect x="36" y="8" width="2" height="2" fill="#181425" />
<rect x="38" y="8" width="2" height="2" fill="#181425" />
<rect x="40" y="8" width="2" height="2" fill="#181425" />
<rect x="12" y="10" width="2" height="2" fill="#181425" />
<rect x="14" y="10" width="2" height="2" fill="#181425" />
<rect x="16" y="10" width="2" height="2" fill="#181425" />
<rect x="18" y="10" width="2" height="2" fill="#181425" />
<rect x="20" y="10" width="2" height="2" fill="#181425" />
<rect x="22" y="10" width="2" height="2" fill="#181425" />
<rect x="24" y="10" width="2" height="2" fill="#181425" />
<rect x="26" y="10" width="2" height="2" fill="#181425" />
<rect x="28" y="10" width="2" height="2" fill="#181425" />
<rect x="30" y="10" width="2" height="2" fill="#181425" />
<rect x="32" y="10" width="2" height="2" fill="#181425" />
<rect x="34" y="10" width="2" height="2" fill="#181425" />
<rect x="36" y="10" width="2" height="2" fill="#181425" />
<rect x="38" y="10" width="2" height="2" fill="#181425" />
<rect x="40" y="10" width="2" height="2" fill="#181425" />
<rect x="42" y="10" width="2" height="2" fill="#181425" />
<rect x="14" y="12" width="2" height="2" fill="#181425" />
<rect x="16" y="12" width="2" height="2" fill="#181425" />
<rect x="18" y="12" width="2" height="2" fill="#181425" />
<rect x="20" y="12" width="2" height="2" fill="#181425" />
<rect x="22" y="12" width="2" height="2" fill="#181425" />
<rect x="24" y="12" width="2" height="2" fill="#181425" />
<rect x="26" y="12" width="2" height="2" fill="#181425" />
<rect x="28" y="12" width="2" height="2" fill="#181425" />
<rect x="30" y="12" width="2" height="2" fill="#181425" />
<rect x="32" y="12" width="2" height="2" fill="#181425" />
<rect x="34" y="12" width="2" height="2" fill="#181425" />
<rect x="36" y="12" width="2" height="2" fill="#181425" />
<rect x="38" y="12" width="2" height="2" fill="#181425" />
<rect x="40" y="12" width="2" height="2" fill="#181425" />
<rect x="42" y="12" width="2" height="2" fill="#181425" />
<rect x="44" y="12" width="2" height="2" fill="#181425" />
<rect x="16" y="14" width="2" height="2" fill="#181425" />
<rect x="18" y="14" width="2" height="2" fill="#181425" />
<rect x="20" y="14" width="2" height="2" fill="#181425" />
<rect x="22" y="14" width="2" height="2" fill="#181425" />
<rect x="24" y="14" width="2" height="2" fill="#181425" />
<rect x="26" y="14" width="2" height="2" fill="#181425" />
<rect x="28" y="14" width="2" height="2" fill="#181425" />
<rect x="30" y="14" width="2" height="2" fill="#181425" />
<rect x="32" y="14" width="2" height="2" fill="#181425" />
<rect x="34" y="14" width="2" height="2" fill="#181425" />
<rect x="36" y="14" width="2" height="2" fill="#181425" />
<rect x="38" y="14" width="2" height="2" fill="#181425" />
<rect x="40" y="14" width="2" height="2" fill="#181425" />
<rect x="42" y="14" width="2" height="2" fill="#181425" />
<rect x="44" y="14" width="2" height="2" fill="#181425" />
<rect x="46" y="14" width="2" height="2" fill="#181425" />
<rect x="20" y="16" width="2" height="2" fill="#181425" />
<rect x="22" y="16" width="2" height="2" fill="#181425" />
<rect x="24" y="16" width="2" height="2" fill="#181425" />
<rect x="26" y="16" width="2" height="2" fill="#181425" />
<rect x="28" y="16" width="2" height="2" fill="#181425" />
<rect x="30" y="16" width="2" height="2" fill="#181425" />
<rect x="32" y="16" width="2" height="2" fill="#181425" />
<rect x="34" y="16" width="2" height="2" fill="#181425" />
<rect x="36" y="16" width="2" height="2" fill="#181425" />
<rect x="38" y="16" width="2" height="2" fill="#181425" />
<rect x="40" y="16" width="2" height="2" fill="#181425" />
<rect x="42" y="16" width="2" height="2" fill="#181425" />
<rect x="44" y="16" width="2" height="2" fill="#181425" />
<rect x="46" y="16" width="2" height="2" fill="#181425" />
<rect x="48" y="16" width="2" height="2" fill="#181425" />
<rect x="24" y="18" width="2" height="2" fill="#181425" />
<rect x="26" y="18" width="2" height="2" fill="#181425" />
<rect x="28" y="18" width="2" height="2" fill="#181425" />
<rect x="30" y="18" width="2" height="2" fill="#181425" />
<rect x="32" y="18" width="2" height="2" fill="#181425" />
<rect x="34" y="18" width="2" height="2" fill="#181425" />
<rect x="36" y="18" width="2" height="2" fill="#181425" />
<rect x="38" y="18" width="2" height="2" fill="#181425" />
<rect x="40" y="18" width="2" height="2" fill="#181425" />
<rect x="42" y="18" width="2" height="2" fill="#181425" />
<rect x="44" y="18" width="2" height="2" fill="#181425" />
<rect x="46" y="18" width="2" height="2" fill="#181425" />
<rect x="48" y="18" width="2" height="2" fill="#181425" />
<rect x="50" y="18" width="2" height="2" fill="#181425" />
<rect x="30" y="20" width="2" height="2" fill="#181425" />
<rect x="32" y="20" width="2" height="2" fill="#181425" />
<rect x="34" y="20" width="2" height="2" fill="#181425" />
<rect x="36" y="20" width="2" height="2" fill="#181425" />
<rect x="38" y="20" width="2" height="2" fill="#181425" />
<rect x="40" y="20" width="2" height="2" fill="#181425" />
<rect x="42" y="20" width="2" height="2" fill="#181425" />
<rect x="44" y="20" width="2" height="2" fill="#181425" />
<rect x="46" y="20" width="2" height="2" fill="#181425" />
<rect x="48" y="20" width="2" height="2" fill="#181425" />
<rect x="50" y="20" width="2" height="2" fill="#181425" />
<rect x="52" y="20" width="2" height="2" fill="#181425" />
<rect x="12" y="22" width="2" height="2" fill="#181425" />
<rect x="14" y="22" width="2" height="2" fill="#181425" />
<rect x="16" y="22" width="2" height="2" fill="#181425" />
<rect x="18" y="22" width="2" height="2" fill="#181425" />
<rect x="20" y="22" width="2" height="2" fill="#181425" />
<rect x="22" y="22" width="2" height="2" fill="#181425" />
<rect x="24" y="22" width="2" height="2" fill="#181425" />
<rect x="26" y="22" width="2" height="2" fill="#181425" />
<rect x="28" y="22" width="2" height="2" fill="#181425" />
<rect x="38" y="22" width="2" height="2" fill="#181425" />
<rect x="40" y="22" width="2" height="2" fill="#181425" />
<rect x="42" y="22" width="2" height="2" fill="#181425" />
<rect x="44" y="22" width="2" height="2" fill="#181425" />
<rect x="46" y="22" width="2" height="2" fill="#181425" />
<rect x="48" y="22" width="2" height="2" fill="#181425" />
<rect x="50" y="22" width="2" height="2" fill="#181425" />
<rect x="52" y="22" width="2" height="2" fill="#181425" />
<rect x="54" y="22" width="2" height="2" fill="#181425" />
<rect x="4" y="24" width="2" height="2" fill="#181425" />
<rect x="6" y="24" width="2" height="2" fill="#181425" />
<rect x="8" y="24" width="2" height="2" fill="#181425" />
<rect x="10" y="24" width="2" height="2" fill="#181425" />
<rect x="12" y="24" width="2" height="2" fill="#181425" />
<rect x="14" y="24" width="2" height="2" fill="#181425" />
<rect x="16" y="24" width="2" height="2" fill="#181425" />
<rect x="18" y="24" width="2" height="2" fill="#181425" />
<rect x="20" y="24" width="2" height="2" fill="#181425" />
<rect x="22" y="24" width="2" height="2" fill="#181425" />
<rect x="24" y="24" width="2" height="2" fill="#181425" />
<rect x="26" y="24" width="2" height="2" fill="#181425" />
<rect x="28" y="24" width="2" height="2" fill="#181425" />
<rect x="30" y="24" width="2" height="2" fill="#181425" />
<rect x="32" y="24" width="2" height="2" fill="#181425" />
<rect x="34" y="24" width="2" height="2" fill="#181425" />
<rect x="36" y="24" width="2" height="2" fill="#181425" />
<rect x="42" y="24" width="2" height="2" fill="#181425" />
<rect x="44" y="24" width="2" height="2" fill="#181425" />
<rect x="46" y="24" width="2" height="2" fill="#181425" />
<rect x="48" y="24" width="2" height="2" fill="#181425" />
<rect x="50" y="24" width="2" height="2" fill="#181425" />
<rect x="52" y="24" width="2" height="2" fill="#181425" />
<rect x="54" y="24" width="2" height="2" fill="#181425" />
<rect x="56" y="24" width="2" height="2" fill="#181425" />
<rect x="2" y="26" width="2" height="2" fill="#181425" />
<rect x="4" y="26" width="2" height="2" fill="#181425" />
<rect x="6" y="26" width="2" height="2" fill="#181425" />
<rect x="8" y="26" width="2" height="2" fill="#181425" />
<rect x="10" y="26" width="2" height="2" fill="#181425" />
<rect x="12" y="26" width="2" height="2" fill="#181425" />
<rect x="14" y="26" width="2" height="2" fill="#181425" />
<rect x="16" y="26" width="2" height="2" fill="#181425" />
<rect x="18" y="26" width="2" height="2" fill="#181425" />
<rect x="20" y="26" width="2" height="2" fill="#181425" />
<rect x="22" y="26" width="2" height="2" fill="#181425" />
<rect x="24" y="26" width="2" height="2" fill="#181425" />
<rect x="26" y="26" width="2" height="2" fill="#181425" />
<rect x="28" y="26" width="2" height="2" fill="#181425" />
<rect x="30" y="26" width="2" height="2" fill="#181425" />
<rect x="32" y="26" width="2" height="2" fill="#181425" />
<rect x="34" y="26" width="2" height="2" fill="#181425" />
<rect x="36" y="26" width="2" height="2" fill="#181425" />
<rect x="38" y="26" width="2" height="2" fill="#181425" />
<rect x="40" y="26" width="2" height="2" fill="#181425" />
<rect x="44" y="26" width="2" height="2" fill="#181425" />
<rect x="46" y="26" width="2" height="2" fill="#181425" />
<rect x="48" y="26" width="2" height="2" fill="#181425" />
<rect x="50" y="26" width="2" height="2" fill="#181425" />
<rect x="52" y="26" width="2" height="2" fill="#181425" />
<rect x="54" y="26" width="2" height="2" fill="#181425" />
<rect x="56" y="26" width="2" height="2" fill="#181425" />
<rect x="0" y="28" width="2" height="2" fill="#181425" />
<rect x="2" y="28" width="2" height="2" fill="#181425" />
<rect x="4" y="28" width="2" height="2" fill="#181425" />
<rect x="6" y="28" width="2" height="2" fill="#181425" />
<rect x="8" y="28" width="2" height="2" fill="#181425" />
<rect x="10" y="28" width="2" height="2" fill="#181425" />
<rect x="12" y="28" width="2" height="2" fill="#181425" />
<rect x="14" y="28" width="2" height="2" fill="#181425" />
<rect x="16" y="28" width="2" height="2" fill="#181425" />
<rect x="18" y="28" width="2" height="2" fill="#181425" />
<rect x="20" y="28" width="2" height="2" fill="#181425" />
<rect x="22" y="28" width="2" height="2" fill="#181425" />
<rect x="24" y="28" width="2" height="2" fill="#181425" />
<rect x="26" y="28" width="2" height="2" fill="#181425" />
<rect x="28" y="28" width="2" height="2" fill="#181425" />
<rect x="30" y="28" width="2" height="2" fill="#181425" />
<rect x="32" y="28" width="2" height="2" fill="#181425" />
<rect x="34" y="28" width="2" height="2" fill="#181425" />
<rect x="36" y="28" width="2" height="2" fill="#181425" />
<rect x="38" y="28" width="2" height="2" fill="#181425" />
<rect x="40" y="28" width="2" height="2" fill="#181425" />
<rect x="42" y="28" width="2" height="2" fill="#181425" />
<rect x="46" y="28" width="2" height="2" fill="#181425" />
<rect x="48" y="28" width="2" height="2" fill="#181425" />
<rect x="50" y="28" width="2" height="2" fill="#181425" />
<rect x="52" y="28" width="2" height="2" fill="#181425" />
<rect x="54" y="28" width="2" height="2" fill="#181425" />
<rect x="56" y="28" width="2" height="2" fill="#181425" />
<rect x="58" y="28" width="2" height="2" fill="#181425" />
<rect x="0" y="30" width="2" height="2" fill="#181425" />
<rect x="2" y="30" width="2" height="2" fill="#181425" />
<rect x="4" y="30" width="2" height="2" fill="#181425" />
<rect x="6" y="30" width="2" height="2" fill="#181425" />
<rect x="8" y="30" width="2" height="2" fill="#181425" />
<rect x="10" y="30" width="2" height="2" fill="#181425" />
<rect x="12" y="30" width="2" height="2" fill="#181425" />
<rect x="14" y="30" width="2" height="2" fill="#181425" />
<rect x="16" y="30" width="2" height="2" fill="#181425" />
<rect x="18" y="30" width="2" height="2" fill="#181425" />
<rect x="20" y="30" width="2" height="2" fill="#181425" />
<rect x="22" y="30" width="2" height="2" fill="#181425" />
<rect x="24" y="30" width="2" height="2" fill="#181425" />
<rect x="26" y="30" width="2" height="2" fill="#181425" />
<rect x="28" y="30" width="2" height="2" fill="#181425" />
<rect x="30" y="30" width="2" height="2" fill="#181425" />
<rect x="32" y="30" width="2" height="2" fill="#181425" />
<rect x="34" y="30" width="2" height="2" fill="#181425" />
<rect x="36" y="30" width="2" height="2" fill="#181425" />
<rect x="38" y="30" width="2" height="2" fill="#181425" />
<rect x="40" y="30" width="2" height="2" fill="#181425" />
<rect x="42" y="30" width="2" height="2" fill="#181425" />
<rect x="44" y="30" width="2" height="2" fill="#181425" />
<rect x="54" y="30" width="2" height="2" fill="#181425" />
<rect x="56" y="30" width="2" height="2" fill="#181425" />
<rect x="58" y="30" width="2" height="2" fill="#181425" />
<rect x="60" y="30" width="2" height="2" fill="#181425" />
<rect x="0" y="32" width="2" height="2" fill="#181425" />
<rect x="2" y="32" width="2" height="2" fill="#181425" />
<rect x="4" y="32" width="2" height="2" fill="#181425" />
<rect x="6" y="32" width="2" height="2" fill="#181425" />
<rect x="8" y="32" width="2" height="2" fill="#181425" />
<rect x="10" y="32" width="2" height="2" fill="#181425" />
<rect x="12" y="32" width="2" height="2" fill="#181425" />
<rect x="14" y="32" width="2" height="2" fill="#181425" />
<rect x="16" y="32" width="2" height="2" fill="#181425" />
<rect x="18" y="32" width="2" height="2" fill="#181425" />
<rect x="20" y="32" width="2" height="2" fill="#181425" />
<rect x="22" y="32" width="2" height="2" fill="#181425" />
<rect x="24" y="32" width="2" height="2" fill="#181425" />
<rect x="26" y="32" width="2" height="2" fill="#181425" />
<rect x="28" y="32" width="2" height="2" fill="#181425" />
<rect x="30" y="32" width="2" height="2" fill="#181425" />
<rect x="32" y="32" width="2" height="2" fill="#181425" />
<rect x="34" y="32" width="2" height="2" fill="#181425" />
<rect x="36" y="32" width="2" height="2" fill="#181425" />
<rect x="38" y="32" width="2" height="2" fill="#181425" />
<rect x="40" y="32" width="2" height="2" fill="#181425" />
<rect x="42" y="32" width="2" height="2" fill="#181425" />
<rect x="44" y="32" width="2" height="2" fill="#181425" />
<rect x="46" y="32" width="2" height="2" fill="#181425" />
<rect x="48" y="32" width="2" height="2" fill="#181425" />
<rect x="50" y="32" width="2" height="2" fill="#181425" />
<rect x="52" y="32" width="2" height="2" fill="#181425" />
<rect x="54" y="32" width="2" height="2" fill="#181425" />
<rect x="56" y="32" width="2" height="2" fill="#181425" />
<rect x="58" y="32" width="2" height="2" fill="#181425" />
<rect x="60" y="32" width="2" height="2" fill="#181425" />
<rect x="62" y="32" width="2" height="2" fill="#181425" />
<rect x="64" y="32" width="2" height="2" fill="#181425" />
<rect x="0" y="34" width="2" height="2" fill="#181425" />
<rect x="2" y="34" width="2" height="2" fill="#181425" />
<rect x="4" y="34" width="2" height="2" fill="#181425" />
<rect x="6" y="34" width="2" height="2" fill="#181425" />
<rect x="8" y="34" width="2" height="2" fill="#181425" />
<rect x="10" y="34" width="2" height="2" fill="#181425" />
<rect x="12" y="34" width="2" height="2" fill="#181425" />
<rect x="14" y="34" width="2" height="2" fill="#181425" />
<rect x="16" y="34" width="2" height="2" fill="#181425" />
<rect x="18" y="34" width="2" height="2" fill="#181425" />
<rect x="20" y="34" width="2" height="2" fill="#181425" />
<rect x="22" y="34" width="2" height="2" fill="#181425" />
<rect x="24" y="34" width="2" height="2" fill="#181425" />
<rect x="26" y="34" width="2" height="2" fill="#181425" />
<rect x="28" y="34" width="2" height="2" fill="#181425" />
<rect x="30" y="34" width="2" height="2" fill="#181425" />
<rect x="32" y="34" width="2" height="2" fill="#181425" />
<rect x="34" y="34" width="2" height="2" fill="#181425" />
<rect x="36" y="34" width="2" height="2" fill="#181425" />
<rect x="38" y="34" width="2" height="2" fill="#181425" />
<rect x="40" y="34" width="2" height="2" fill="#181425" />
<rect x="42" y="34" width="2" height="2" fill="#181425" />
<rect x="44" y="34" width="2" height="2" fill="#181425" />
<rect x="46" y="34" width="2" height="2" fill="#181425" />
<rect x="48" y="34" width="2" height="2" fill="#181425" />
<rect x="50" y="34" width="2" height="2" fill="#181425" />
<rect x="52" y="34" width="2" height="2" fill="#181425" />
<rect x="54" y="34" width="2" height="2" fill="#181425" />
<rect x="56" y="34" width="2" height="2" fill="#181425" />
<rect x="58" y="34" width="2" height="2" fill="#181425" />
<rect x="60" y="34" width="2" height="2" fill="#181425" />
<rect x="62" y="34" width="2" height="2" fill="#181425" />
<rect x="64" y="34" width="2" height="2" fill="#181425" />
<rect x="66" y="34" width="2" height="2" fill="#181425" />
<rect x="2" y="36" width="2" height="2" fill="#181425" />
<rect x="4" y="36" width="2" height="2" fill="#181425" />
<rect x="6" y="36" width="2" height="2" fill="#181425" />
<rect x="8" y="36" width="2" height="2" fill="#181425" />
<rect x="10" y="36" width="2" height="2" fill="#181425" />
<rect x="12" y="36" width="2" height="2" fill="#181425" />
<rect x="14" y="36" width="2" height="2" fill="#181425" />
<rect x="16" y="36" width="2" height="2" fill="#181425" />
<rect x="18" y="36" width="2" height="2" fill="#181425" />
<rect x="20" y="36" width="2" height="2" fill="#181425" />
<rect x="22" y="36" width="2" height="2" fill="#181425" />
<rect x="24" y="36" width="2" height="2" fill="#181425" />
<rect x="26" y="36" width="2" height="2" fill="#181425" />
<rect x="28" y="36" width="2" height="2" fill="#181425" />
<rect x="30" y="36" width="2" height="2" fill="#181425" />
<rect x="32" y="36" width="2" height="2" fill="#181425" />
<rect x="34" y="36" width="2" height="2" fill="#181425" />
<rect x="36" y="36" width="2" height="2" fill="#181425" />
<rect x="38" y="36" width="2" height="2" fill="#181425" />
<rect x="40" y="36" width="2" height="2" fill="#181425" />
<rect x="42" y="36" width="2" height="2" fill="#181425" />
<rect x="44" y="36" width="2" height="2" fill="#181425" />
<rect x="46" y="36" width="2" height="2" fill="#181425" />
<rect x="48" y="36" width="2" height="2" fill="#181425" />
<rect x="50" y="36" width="2" height="2" fill="#181425" />
<rect x="52" y="36" width="2" height="2" fill="#181425" />
<rect x="54" y="36" width="2" height="2" fill="#181425" />
<rect x="56" y="36" width="2" height="2" fill="#181425" />
<rect x="58" y="36" width="2" height="2" fill="#181425" />
<rect x="60" y="36" width="2" height="2" fill="#181425" />
<rect x="62" y="36" width="2" height="2" fill="#181425" />
<rect x="64" y="36" width="2" height="2" fill="#181425" />
<rect x="66" y="36" width="2" height="2" fill="#181425" />
<rect x="68" y="36" width="2" height="2" fill="#181425" />
<rect x="4" y="38" width="2" height="2" fill="#181425" />
<rect x="6" y="38" width="2" height="2" fill="#181425" />
<rect x="8" y="38" width="2" height="2" fill="#181425" />
<rect x="10" y="38" width="2" height="2" fill="#181425" />
<rect x="12" y="38" width="2" height="2" fill="#181425" />
<rect x="14" y="38" width="2" height="2" fill="#181425" />
<rect x="16" y="38" width="2" height="2" fill="#181425" />
<rect x="28" y="38" width="2" height="2" fill="#181425" />
<rect x="30" y="38" width="2" height="2" fill="#181425" />
<rect x="32" y="38" width="2" height="2" fill="#181425" />
<rect x="34" y="38" width="2" height="2" fill="#181425" />
<rect x="36" y="38" width="2" height="2" fill="#181425" />
<rect x="38" y="38" width="2" height="2" fill="#181425" />
<rect x="40" y="38" width="2" height="2" fill="#181425" />
<rect x="42" y="38" width="2" height="2" fill="#181425" />
<rect x="44" y="38" width="2" height="2" fill="#181425" />
<rect x="46" y="38" width="2" height="2" fill="#181425" />
<rect x="48" y="38" width="2" height="2" fill="#181425" />
<rect x="50" y="38" width="2" height="2" fill="#181425" />
<rect x="52" y="38" width="2" height="2" fill="#181425" />
<rect x="54" y="38" width="2" height="2" fill="#181425" />
<rect x="56" y="38" width="2" height="2" fill="#181425" />
<rect x="58" y="38" width="2" height="2" fill="#181425" />
<rect x="60" y="38" width="2" height="2" fill="#181425" />
<rect x="62" y="38" width="2" height="2" fill="#181425" />
<rect x="64" y="38" width="2" height="2" fill="#181425" />
<rect x="66" y="38" width="2" height="2" fill="#181425" />
<rect x="68" y="38" width="2" height="2" fill="#181425" />
<rect x="70" y="38" width="2" height="2" fill="#181425" />
<rect x="32" y="40" width="2" height="2" fill="#181425" />
<rect x="34" y="40" width="2" height="2" fill="#181425" />
<rect x="36" y="40" width="2" height="2" fill="#181425" />
<rect x="38" y="40" width="2" height="2" fill="#181425" />
<rect x="40" y="40" width="2" height="2" fill="#181425" />
<rect x="42" y="40" width="2" height="2" fill="#181425" />
<rect x="44" y="40" width="2" height="2" fill="#181425" />
<rect x="46" y="40" width="2" height="2" fill="#181425" />
<rect x="48" y="40" width="2" height="2" fill="#181425" />
<rect x="50" y="40" width="2" height="2" fill="#181425" />
<rect x="52" y="40" width="2" height="2" fill="#181425" />
<rect x="54" y="40" width="2" height="2" fill="#181425" />
<rect x="56" y="40" width="2" height="2" fill="#181425" />
<rect x="58" y="40" width="2" height="2" fill="#181425" />
<rect x="60" y="40" width="2" height="2" fill="#181425" />
<rect x="62" y="40" width="2" height="2" fill="#181425" />
<rect x="64" y="40" width="2" height="2" fill="#181425" />
<rect x="66" y="40" width="2" height="2" fill="#181425" />
<rect x="68" y="40" width="2" height="2" fill="#181425" />
<rect x="70" y="40" width="2" height="2" fill="#181425" />
<rect x="30" y="42" width="2" height="2" fill="#181425" />
<rect x="32" y="42" width="2" height="2" fill="#181425" />
<rect x="34" y="42" width="2" height="2" fill="#181425" />
<rect x="36" y="42" width="2" height="2" fill="#181425" />
<rect x="38" y="42" width="2" height="2" fill="#181425" />
<rect x="40" y="42" width="2" height="2" fill="#181425" />
<rect x="42" y="42" width="2" height="2" fill="#181425" />
<rect x="44" y="42" width="2" height="2" fill="#181425" />
<rect x="46" y="42" width="2" height="2" fill="#181425" />
<rect x="48" y="42" width="2" height="2" fill="#181425" />
<rect x="50" y="42" width="2" height="2" fill="#181425" />
<rect x="52" y="42" width="2" height="2" fill="#181425" />
<rect x="54" y="42" width="2" height="2" fill="#181425" />
<rect x="56" y="42" width="2" height="2" fill="#181425" />
<rect x="58" y="42" width="2" height="2" fill="#181425" />
<rect x="60" y="42" width="2" height="2" fill="#181425" />
<rect x="62" y="42" width="2" height="2" fill="#181425" />
<rect x="64" y="42" width="2" height="2" fill="#181425" />
<rect x="66" y="42" width="2" height="2" fill="#181425" />
<rect x="68" y="42" width="2" height="2" fill="#181425" />
<rect x="70" y="42" width="2" height="2" fill="#181425" />
<rect x="72" y="42" width="2" height="2" fill="#181425" />
<rect x="30" y="44" width="2" height="2" fill="#181425" />
<rect x="32" y="44" width="2" height="2" fill="#181425" />
<rect x="34" y="44" width="2" height="2" fill="#181425" />
<rect x="36" y="44" width="2" height="2" fill="#181425" />
<rect x="38" y="44" width="2" height="2" fill="#181425" />
<rect x="40" y="44" width="2" height="2" fill="#181425" />
<rect x="42" y="44" width="2" height="2" fill="#181425" />
<rect x="44" y="44" width="2" height="2" fill="#181425" />
<rect x="46" y="44" width="2" height="2" fill="#181425" />
<rect x="48" y="44" width="2" height="2" fill="#181425" />
<rect x="50" y="44" width="2" height="2" fill="#181425" />
<rect x="52" y="44" width="2" height="2" fill="#181425" />
<rect x="54" y="44" width="2" height="2" fill="#181425" />
<rect x="56" y="44" width="2" height="2" fill="#181425" />
<rect x="58" y="44" width="2" height="2" fill="#181425" />
<rect x="60" y="44" width="2" height="2" fill="#181425" />
<rect x="62" y="44" width="2" height="2" fill="#181425" />
<rect x="64" y="44" width="2" height="2" fill="#181425" />
<rect x="66" y="44" width="2" height="2" fill="#181425" />
<rect x="68" y="44" width="2" height="2" fill="#181425" />
<rect x="70" y="44" width="2" height="2" fill="#181425" />
<rect x="72" y="44" width="2" height="2" fill="#181425" />
<rect x="28" y="46" width="2" height="2" fill="#181425" />
<rect x="30" y="46" width="2" height="2" fill="#181425" />
<rect x="32" y="46" width="2" height="2" fill="#181425" />
<rect x="34" y="46" width="2" height="2" fill="#181425" />
<rect x="36" y="46" width="2" height="2" fill="#181425" />
<rect x="38" y="46" width="2" height="2" fill="#181425" />
<rect x="40" y="46" width="2" height="2" fill="#181425" />
<rect x="42" y="46" width="2" height="2" fill="#181425" />
<rect x="44" y="46" width="2" height="2" fill="#181425" />
<rect x="46" y="46" width="2" height="2" fill="#181425" />
<rect x="48" y="46" width="2" height="2" fill="#181425" />
<rect x="50" y="46" width="2" height="2" fill="#181425" />
<rect x="52" y="46" width="2" height="2" fill="#181425" />
<rect x="54" y="46" width="2" height="2" fill="#181425" />
<rect x="56" y="46" width="2" height="2" fill="#181425" />
<rect x="58" y="46" width="2" height="2" fill="#181425" />
<rect x="60" y="46" width="2" height="2" fill="#181425" />
<rect x="62" y="46" width="2" height="2" fill="#181425" />
<rect x="64" y="46" width="2" height="2" fill="#181425" />
<rect x="66" y="46" width="2" height="2" fill="#181425" />
<rect x="68" y="46" width="2" height="2" fill="#181425" />
<rect x="70" y="46" width="2" height="2" fill="#181425" />
<rect x="72" y="46" width="2" height="2" fill="#181425" />
<rect x="74" y="46" width="2" height="2" fill="#181425" />
<rect x="28" y="48" width="2" height="2" fill="#181425" />
<rect x="30" y="48" width="2" height="2" fill="#181425" />
<rect x="32" y="48" width="2" height="2" fill="#181425" />
<rect x="34" y="48" width="2" height="2" fill="#181425" />
<rect x="36" y="48" width="2" height="2" fill="#181425" />
<rect x="38" y="48" width="2" height="2" fill="#181425" />
<rect x="40" y="48" width="2" height="2" fill="#181425" />
<rect x="42" y="48" width="2" height="2" fill="#181425" />
<rect x="44" y="48" width="2" height="2" fill="#181425" />
<rect x="46" y="48" width="2" height="2" fill="#181425" />
<rect x="48" y="48" width="2" height="2" fill="#181425" />
<rect x="50" y="48" width="2" height="2" fill="#181425" />
<rect x="52" y="48" width="2" height="2" fill="#181425" />
<rect x="54" y="48" width="2" height="2" fill="#181425" />
<rect x="56" y="48" width="2" height="2" fill="#181425" />
<rect x="58" y="48" width="2" height="2" fill="#181425" />
<rect x="60" y="48" width="2" height="2" fill="#181425" />
<rect x="62" y="48" width="2" height="2" fill="#181425" />
<rect x="64" y="48" width="2" height="2" fill="#181425" />
<rect x="66" y="48" width="2" height="2" fill="#181425" />
<rect x="68" y="48" width="2" height="2" fill="#181425" />
<rect x="74" y="48" width="2" height="2" fill="#181425" />
<rect x="28" y="50" width="2" height="2" fill="#181425" />
<rect x="30" y="50" width="2" height="2" fill="#181425" />
<rect x="32" y="50" width="2" height="2" fill="#181425" />
<rect x="34" y="50" width="2" height="2" fill="#181425" />
<rect x="36" y="50" width="2" height="2" fill="#181425" />
<rect x="38" y="50" width="2" height="2" fill="#181425" />
<rect x="40" y="50" width="2" height="2" fill="#181425" />
<rect x="42" y="50" width="2" height="2" fill="#181425" />
<rect x="44" y="50" width="2" height="2" fill="#181425" />
<rect x="46" y="50" width="2" height="2" fill="#181425" />
<rect x="48" y="50" width="2" height="2" fill="#181425" />
<rect x="50" y="50" width="2" height="2" fill="#181425" />
<rect x="52" y="50" width="2" height="2" fill="#181425" />
<rect x="54" y="50" width="2" height="2" fill="#181425" />
<rect x="56" y="50" width="2" height="2" fill="#181425" />
<rect x="58" y="50" width="2" height="2" fill="#181425" />
<rect x="60" y="50" width="2" height="2" fill="#181425" />
<rect x="62" y="50" width="2" height="2" fill="#181425" />
<rect x="64" y="50" width="2" height="2" fill="#181425" />
<rect x="66" y="50" width="2" height="2" fill="#181425" />
<rect x="70" y="50" width="2" height="2" fill="#181425" />
<rect x="74" y="50" width="2" height="2" fill="#181425" />
<rect x="28" y="52" width="2" height="2" fill="#181425" />
<rect x="30" y="52" width="2" height="2" fill="#181425" />
<rect x="32" y="52" width="2" height="2" fill="#181425" />
<rect x="34" y="52" width="2" height="2" fill="#181425" />
<rect x="36" y="52" width="2" height="2" fill="#181425" />
<rect x="38" y="52" width="2" height="2" fill="#181425" />
<rect x="40" y="52" width="2" height="2" fill="#181425" />
<rect x="42" y="52" width="2" height="2" fill="#181425" />
<rect x="44" y="52" width="2" height="2" fill="#181425" />
<rect x="46" y="52" width="2" height="2" fill="#181425" />
<rect x="48" y="52" width="2" height="2" fill="#181425" />
<rect x="50" y="52" width="2" height="2" fill="#181425" />
<rect x="52" y="52" width="2" height="2" fill="#181425" />
<rect x="54" y="52" width="2" height="2" fill="#181425" />
<rect x="56" y="52" width="2" height="2" fill="#181425" />
<rect x="58" y="52" width="2" height="2" fill="#181425" />
<rect x="60" y="52" width="2" height="2" fill="#181425" />
<rect x="62" y="52" width="2" height="2" fill="#181425" />
<rect x="64" y="52" width="2" height="2" fill="#181425" />
<rect x="70" y="52" width="2" height="2" fill="#181425" />
<rect x="74" y="52" width="2" height="2" fill="#181425" />
<rect x="28" y="54" width="2" height="2" fill="#181425" />
<rect x="30" y="54" width="2" height="2" fill="#181425" />
<rect x="32" y="54" width="2" height="2" fill="#181425" />
<rect x="34" y="54" width="2" height="2" fill="#181425" />
<rect x="36" y="54" width="2" height="2" fill="#181425" />
<rect x="38" y="54" width="2" height="2" fill="#181425" />
<rect x="40" y="54" width="2" height="2" fill="#181425" />
<rect x="42" y="54" width="2" height="2" fill="#181425" />
<rect x="44" y="54" width="2" height="2" fill="#181425" />
<rect x="46" y="54" width="2" height="2" fill="#181425" />
<rect x="48" y="54" width="2" height="2" fill="#181425" />
<rect x="50" y="54" width="2" height="2" fill="#181425" />
<rect x="52" y="54" width="2" height="2" fill="#181425" />
<rect x="54" y="54" width="2" height="2" fill="#181425" />
<rect x="56" y="54" width="2" height="2" fill="#181425" />
<rect x="58" y="54" width="2" height="2" fill="#181425" />
<rect x="60" y="54" width="2" height="2" fill="#181425" />
<rect x="62" y="54" width="2" height="2" fill="#181425" />
<rect x="72" y="54" width="2" height="2" fill="#181425" />
<rect x="74" y="54" width="2" height="2" fill="#181425" />
<rect x="28" y="56" width="2" height="2" fill="#181425" />
<rect x="30" y="56" width="2" height="2" fill="#181425" />
<rect x="32" y="56" width="2" height="2" fill="#181425" />
<rect x="34" y="56" width="2" height="2" fill="#181425" />
<rect x="36" y="56" width="2" height="2" fill="#181425" />
<rect x="38" y="56" width="2" height="2" fill="#181425" />
<rect x="40" y="56" width="2" height="2" fill="#181425" />
<rect x="42" y="56" width="2" height="2" fill="#181425" />
<rect x="44" y="56" width="2" height="2" fill="#181425" />
<rect x="46" y="56" width="2" height="2" fill="#181425" />
<rect x="48" y="56" width="2" height="2" fill="#181425" />
<rect x="50" y="56" width="2" height="2" fill="#181425" />
<rect x="52" y="56" width="2" height="2" fill="#181425" />
<rect x="54" y="56" width="2" height="2" fill="#181425" />
<rect x="56" y="56" width="2" height="2" fill="#181425" />
<rect x="58" y="56" width="2" height="2" fill="#181425" />
<rect x="62" y="56" width="2" height="2" fill="#181425" />
<rect x="64" y="56" width="2" height="2" fill="#181425" />
<rect x="66" y="56" width="2" height="2" fill="#181425" />
<rect x="68" y="56" width="2" height="2" fill="#181425" />
<rect x="70" y="56" width="2" height="2" fill="#181425" />
<rect x="72" y="56" width="2" height="2" fill="#181425" />
<rect x="74" y="56" width="2" height="2" fill="#181425" />
<rect x="30" y="58" width="2" height="2" fill="#181425" />
<rect x="32" y="58" width="2" height="2" fill="#181425" />
<rect x="34" y="58" width="2" height="2" fill="#181425" />
<rect x="36" y="58" width="2" height="2" fill="#181425" />
<rect x="38" y="58" width="2" height="2" fill="#181425" />
<rect x="40" y="58" width="2" height="2" fill="#181425" />
<rect x="42" y="58" width="2" height="2" fill="#181425" />
<rect x="60" y="58" width="2" height="2" fill="#181425" />
<rect x="62" y="58" width="2" height="2" fill="#181425" />
<rect x="64" y="58" width="2" height="2" fill="#181425" />
<rect x="66" y="58" width="2" height="2" fill="#181425" />
<rect x="68" y="58" width="2" height="2" fill="#181425" />
<rect x="70" y="58" width="2" height="2" fill="#181425" />
<rect x="72" y="58" width="2" height="2" fill="#181425" />
<rect x="30" y="60" width="2" height="2" fill="#181425" />
<rect x="32" y="60" width="2" height="2" fill="#181425" />
<rect x="34" y="60" width="2" height="2" fill="#181425" />
<rect x="36" y="60" width="2" height="2" fill="#181425" />
<rect x="38" y="60" width="2" height="2" fill="#181425" />
<rect x="40" y="60" width="2" height="2" fill="#181425" />
<rect x="42" y="60" width="2" height="2" fill="#181425" />
<rect x="54" y="60" width="2" height="2" fill="#181425" />
<rect x="60" y="60" width="2" height="2" fill="#181425" />
<rect x="62" y="60" width="2" height="2" fill="#181425" />
<rect x="64" y="60" width="2" height="2" fill="#181425" />
<rect x="66" y="60" width="2" height="2" fill="#181425" />
<rect x="68" y="60" width="2" height="2" fill="#181425" />
<rect x="70" y="60" width="2" height="2" fill="#181425" />
<rect x="72" y="60" width="2" height="2" fill="#181425" />
<rect x="32" y="62" width="2" height="2" fill="#181425" />
<rect x="34" y="62" width="2" height="2" fill="#181425" />
<rect x="36" y="62" width="2" height="2" fill="#181425" />
<rect x="38" y="62" width="2" height="2" fill="#181425" />
<rect x="40" y="62" width="2" height="2" fill="#181425" />
<rect x="42" y="62" width="2" height="2" fill="#181425" />
<rect x="54" y="62" width="2" height="2" fill="#181425" />
<rect x="60" y="62" width="2" height="2" fill="#181425" />
<rect x="62" y="62" width="2" height="2" fill="#181425" />
<rect x="68" y="62" width="2" height="2" fill="#181425" />
<rect x="70" y="62" width="2" height="2" fill="#181425" />
<rect x="32" y="64" width="2" height="2" fill="#181425" />
<rect x="34" y="64" width="2" height="2" fill="#181425" />
<rect x="36" y="64" width="2" height="2" fill="#181425" />
<rect x="38" y="64" width="2" height="2" fill="#181425" />
<rect x="40" y="64" width="2" height="2" fill="#181425" />
<rect x="42" y="64" width="2" height="2" fill="#181425" />
<rect x="44" y="64" width="2" height="2" fill="#181425" />
<rect x="54" y="64" width="2" height="2" fill="#181425" />
<rect x="58" y="64" width="2" height="2" fill="#181425" />
<rect x="60" y="64" width="2" height="2" fill="#181425" />
<rect x="62" y="64" width="2" height="2" fill="#181425" />
<rect x="68" y="64" width="2" height="2" fill="#181425" />
<rect x="70" y="64" width="2" height="2" fill="#181425" />
<rect x="34" y="66" width="2" height="2" fill="#181425" />
<rect x="36" y="66" width="2" height="2" fill="#181425" />
<rect x="38" y="66" width="2" height="2" fill="#181425" />
<rect x="40" y="66" width="2" height="2" fill="#181425" />
<rect x="42" y="66" width="2" height="2" fill="#181425" />
<rect x="44" y="66" width="2" height="2" fill="#181425" />
<rect x="46" y="66" width="2" height="2" fill="#181425" />
<rect x="56" y="66" width="2" height="2" fill="#181425" />
<rect x="58" y="66" width="2" height="2" fill="#181425" />
<rect x="60" y="66" width="2" height="2" fill="#181425" />
<rect x="62" y="66" width="2" height="2" fill="#181425" />
<rect x="66" y="66" width="2" height="2" fill="#181425" />
<rect x="68" y="66" width="2" height="2" fill="#181425" />
<rect x="36" y="68" width="2" height="2" fill="#181425" />
<rect x="38" y="68" width="2" height="2" fill="#181425" />
<rect x="40" y="68" width="2" height="2" fill="#181425" />
<rect x="42" y="68" width="2" height="2" fill="#181425" />
<rect x="44" y="68" width="2" height="2" fill="#181425" />
<rect x="46" y="68" width="2" height="2" fill="#181425" />
<rect x="48" y="68" width="2" height="2" fill="#181425" />
<rect x="50" y="68" width="2" height="2" fill="#181425" />
<rect x="52" y="68" width="2" height="2" fill="#181425" />
<rect x="54" y="68" width="2" height="2" fill="#181425" />
<rect x="56" y="68" width="2" height="2" fill="#181425" />
<rect x="58" y="68" width="2" height="2" fill="#181425" />
<rect x="60" y="68" width="2" height="2" fill="#181425" />
<rect x="62" y="68" width="2" height="2" fill="#181425" />
<rect x="64" y="68" width="2" height="2" fill="#181425" />
<rect x="66" y="68" width="2" height="2" fill="#181425" />
<rect x="38" y="70" width="2" height="2" fill="#181425" />
<rect x="40" y="70" width="2" height="2" fill="#181425" />
<rect x="42" y="70" width="2" height="2" fill="#181425" />
<rect x="44" y="70" width="2" height="2" fill="#181425" />
<rect x="46" y="70" width="2" height="2" fill="#181425" />
<rect x="48" y="70" width="2" height="2" fill="#181425" />
<rect x="50" y="70" width="2" height="2" fill="#181425" />
<rect x="52" y="70" width="2" height="2" fill="#181425" />
<rect x="54" y="70" width="2" height="2" fill="#181425" />
<rect x="56" y="70" width="2" height="2" fill="#181425" />
<rect x="58" y="70" width="2" height="2" fill="#181425" />
<rect x="60" y="70" width="2" height="2" fill="#181425" />
<rect x="62" y="70" width="2" height="2" fill="#181425" />
<rect x="64" y="70" width="2" height="2" fill="#181425" />
<rect x="42" y="72" width="2" height="2" fill="#181425" />
<rect x="44" y="72" width="2" height="2" fill="#181425" />
<rect x="46" y="72" width="2" height="2" fill="#181425" />
<rect x="48" y="72" width="2" height="2" fill="#181425" />
<rect x="50" y="72" width="2" height="2" fill="#181425" />
<rect x="52" y="72" width="2" height="2" fill="#181425" />
<rect x="54" y="72" width="2" height="2" fill="#181425" />
<rect x="56" y="72" width="2" height="2" fill="#181425" />
<rect x="58" y="72" width="2" height="2" fill="#181425" />
<rect x="60" y="72" width="2" height="2" fill="#181425" />
<rect x="46" y="74" width="2" height="2" fill="#181425" />
<rect x="48" y="74" width="2" height="2" fill="#181425" />
<rect x="50" y="74" width="2" height="2" fill="#181425" />
<rect x="52" y="74" width="2" height="2" fill="#181425" />
<rect x="54" y="74" width="2" height="2" fill="#181425" />
<rect x="56" y="74" width="2" height="2" fill="#181425" />
</svg>